M48
; DRILL file {KiCad (5.1.5-0)} date Monday, 16 November 2020 at 14:07:33
; FORMAT={-:-/ absolute / inch / decimal}
; #@! TF.CreationDate,2020-11-16T14:07:33+00:00
; #@! TF.GenerationSoftware,Kicad,Pcbnew,(5.1.5-0)
; #@! TF.FileFunction,Plated,1,2,PTH
FMAT,2
INCH
T1C0.0157
T2C0.0394
T3C0.0400
T4C0.0472
T5C0.1260
%
G90
G05
T1
X4.485Y-5.065
X4.54Y-4.165
X4.54Y-4.5
X4.615Y-5.065
X4.655Y-4.165
X4.655Y-4.5
X4.745Y-5.065
X4.77Y-4.165
X4.77Y-4.5
X4.875Y-5.07
X4.89Y-4.165
X4.89Y-4.5
X5.005Y-5.07
X5.01Y-4.165
X5.01Y-4.5
X5.13Y-4.165
X5.13Y-4.505
X5.135Y-5.07
X5.265Y-5.07
X5.395Y-5.07
T2
X5.4Y-4.205
X5.4Y-4.305
X5.4Y-4.405
X5.4Y-4.505
X5.68Y-4.1475
X5.68Y-4.2475
X5.68Y-4.3475
X5.68Y-4.4475
X5.68Y-4.5475
X5.78Y-4.1475
X5.78Y-4.2475
X5.78Y-4.3475
X5.78Y-4.4475
X5.78Y-4.5475
X6.2772Y-4.0993
X6.2772Y-4.1993
X6.2772Y-4.2993
X6.2772Y-4.4993
X6.2772Y-4.5993
X6.2772Y-4.6993
T3
X4.4765Y-4.75
X4.4772Y-3.8493
X4.4772Y-3.9493
X4.4776Y-4.8489
X4.4776Y-4.9489
X4.5765Y-4.75
X4.5772Y-3.8493
X4.5772Y-3.9493
X4.5776Y-4.8489
X4.5776Y-4.9489
X4.6765Y-4.75
X4.6772Y-3.8493
X4.6772Y-3.9493
X4.6776Y-4.8489
X4.6776Y-4.9489
X4.7765Y-4.75
X4.7772Y-3.8493
X4.7772Y-3.9493
X4.7776Y-4.8489
X4.7776Y-4.9489
X4.8765Y-4.75
X4.8772Y-3.8493
X4.8772Y-3.9493
X4.8776Y-4.8489
X4.8776Y-4.9489
X4.9765Y-4.75
X4.9772Y-3.8493
X4.9772Y-3.9493
X4.9776Y-4.8489
X4.9776Y-4.9489
X5.0765Y-4.75
X5.0772Y-3.8493
X5.0772Y-3.9493
X5.0776Y-4.8489
X5.0776Y-4.9489
X5.1765Y-4.75
X5.1772Y-3.8493
X5.1772Y-3.9493
X5.1776Y-4.8489
X5.1776Y-4.9489
X5.2765Y-4.75
X5.2772Y-3.8493
X5.2772Y-3.9493
X5.2776Y-4.8489
X5.2776Y-4.9489
X5.3765Y-4.75
X5.3772Y-3.8493
X5.3772Y-3.9493
X5.3776Y-4.8489
X5.3776Y-4.9489
X5.4772Y-3.8493
X5.4772Y-3.9493
X5.4776Y-4.8489
X5.4776Y-4.9489
X5.5772Y-3.8493
X5.5772Y-3.9493
X5.5776Y-4.8489
X5.5776Y-4.9489
X5.6772Y-3.8493
X5.6772Y-3.9493
X5.6776Y-4.8489
X5.6776Y-4.9489
X5.7772Y-3.8493
X5.7772Y-3.9493
X5.7776Y-4.8489
X5.7776Y-4.9489
X5.8765Y-4.75
X5.8772Y-3.8493
X5.8772Y-3.9493
X5.8776Y-4.8489
X5.8776Y-4.9489
X5.9765Y-4.75
X5.9772Y-3.8493
X5.9772Y-3.9493
X5.9776Y-4.8489
X5.9776Y-4.9489
X6.0765Y-4.75
X6.0772Y-3.8493
X6.0772Y-3.9493
X6.0776Y-4.8489
X6.0776Y-4.9489
X6.1772Y-3.8493
X6.1772Y-3.9493
X6.1776Y-4.8489
X6.1776Y-4.9489
T4
X4.5025Y-3.59
X4.6025Y-3.59
X4.7025Y-3.59
X4.8025Y-3.59
X4.9025Y-3.59
X5.0025Y-3.59
X5.1025Y-3.59
X5.2025Y-3.59
X5.3025Y-3.59
X5.4025Y-3.59
X5.5025Y-3.59
X5.6025Y-3.59
X5.87Y-5.385
X5.97Y-5.385
X6.07Y-5.385
X4.505Y-5.39
X4.605Y-5.39
X4.705Y-5.39
X4.805Y-5.39
X4.905Y-5.39
X5.005Y-5.39
X5.105Y-5.39
X5.205Y-5.39
X5.305Y-5.39
T5
X6.6Y-5.4
X4.2Y-5.4
X6.6Y-3.6
X4.2Y-3.6
T0
M30
