G04 #@! TF.GenerationSoftware,KiCad,Pcbnew,(5.1.5-0)*
G04 #@! TF.CreationDate,2020-11-12T13:18:58+00:00*
G04 #@! TF.ProjectId,Strummi,53747275-6d6d-4692-9e6b-696361645f70,rev?*
G04 #@! TF.SameCoordinates,Original*
G04 #@! TF.FileFunction,Copper,L1,Top*
G04 #@! TF.FilePolarity,Positive*
%FSLAX46Y46*%
G04 Gerber Fmt 4.6, Leading zero omitted, Abs format (unit mm)*
G04 Created by KiCad (PCBNEW (5.1.5-0)) date 2020-11-12 13:18:58*
%MOMM*%
%LPD*%
G04 APERTURE LIST*
%ADD10C,6.400000*%
%ADD11O,2.000000X2.600000*%
%ADD12R,2.000000X2.600000*%
%ADD13R,1.300000X1.500000*%
%ADD14O,3.016000X1.508000*%
%ADD15C,1.879600*%
%ADD16C,1.524000*%
%ADD17O,1.700000X1.700000*%
%ADD18R,1.700000X1.700000*%
%ADD19C,0.800000*%
%ADD20C,0.250000*%
G04 APERTURE END LIST*
D10*
X106680000Y-91440000D03*
X167640000Y-91440000D03*
X167640000Y-137160000D03*
X106680000Y-137160000D03*
D11*
X114427000Y-136906000D03*
X116967000Y-136906000D03*
X119507000Y-136906000D03*
X122047000Y-136906000D03*
X124587000Y-136906000D03*
X127127000Y-136906000D03*
X129667000Y-136906000D03*
X132207000Y-136906000D03*
D12*
X134747000Y-136906000D03*
D11*
X142303500Y-91186000D03*
X139763500Y-91186000D03*
X137223500Y-91186000D03*
X134683500Y-91186000D03*
X132143500Y-91186000D03*
X129603500Y-91186000D03*
X127063500Y-91186000D03*
X124523500Y-91186000D03*
X121983500Y-91186000D03*
X119443500Y-91186000D03*
X116903500Y-91186000D03*
D12*
X114363500Y-91186000D03*
D13*
X113919000Y-128778000D03*
X113919000Y-131478000D03*
X117221000Y-131478000D03*
X117221000Y-128778000D03*
X120523000Y-128825000D03*
X120523000Y-131525000D03*
X123825000Y-131605000D03*
X123825000Y-128905000D03*
X127127000Y-128905000D03*
X127127000Y-131605000D03*
X130429000Y-131605000D03*
X130429000Y-128905000D03*
X133731000Y-128905000D03*
X133731000Y-131605000D03*
X137033000Y-131605000D03*
X137033000Y-128905000D03*
X115316000Y-108538000D03*
X115316000Y-105838000D03*
X115316000Y-111633000D03*
X115316000Y-114333000D03*
X118237000Y-105838000D03*
X118237000Y-108538000D03*
X118237000Y-111633000D03*
X118237000Y-114333000D03*
X121158000Y-108538000D03*
X121158000Y-105838000D03*
X121158000Y-114333000D03*
X121158000Y-111633000D03*
X124206000Y-105838000D03*
X124206000Y-108538000D03*
X124206000Y-111633000D03*
X124206000Y-114333000D03*
X127254000Y-108538000D03*
X127254000Y-105838000D03*
X127254000Y-114333000D03*
X127254000Y-111633000D03*
X130302000Y-105885000D03*
X130302000Y-108585000D03*
X130302000Y-111633000D03*
X130302000Y-114333000D03*
D14*
X159441024Y-114282076D03*
X159441024Y-116822076D03*
X159441024Y-119362076D03*
X159441024Y-104122076D03*
X159441024Y-106662076D03*
X159441024Y-109202076D03*
D15*
X154343101Y-120650000D03*
X151803101Y-120650000D03*
X149263101Y-120650000D03*
D16*
X131501698Y-100311403D03*
X131501698Y-97771403D03*
X123881698Y-100311403D03*
X123881698Y-97771403D03*
X118801698Y-97771403D03*
X116261698Y-100311403D03*
X121341698Y-100311403D03*
X121341698Y-97771403D03*
X118801698Y-100311403D03*
X116261698Y-97771403D03*
X113721698Y-100311403D03*
X113721698Y-97771403D03*
X136581698Y-97771403D03*
X134041698Y-100311403D03*
X134041698Y-97771403D03*
X139121698Y-100311403D03*
X139121698Y-97771403D03*
X136581698Y-100311403D03*
X156901698Y-100311403D03*
X156901698Y-97771403D03*
X154361698Y-100311403D03*
X144201698Y-100311403D03*
X144201698Y-97771403D03*
X141661698Y-100311403D03*
X141661698Y-97771403D03*
X149281698Y-97771403D03*
X146741698Y-100311403D03*
X146741698Y-97771403D03*
X128961698Y-100311403D03*
X128961698Y-97771403D03*
X126421698Y-100311403D03*
X126421698Y-97771403D03*
X154361698Y-97771403D03*
X151821698Y-100311403D03*
X151821698Y-97771403D03*
X149281698Y-100311403D03*
D15*
X136563101Y-120650000D03*
X134023101Y-120650000D03*
X131483101Y-120650000D03*
X128943101Y-120650000D03*
X126403101Y-120650000D03*
X123863101Y-120650000D03*
X121323101Y-120650000D03*
X118783101Y-120650000D03*
X116243101Y-120650000D03*
X113703101Y-120650000D03*
D16*
X156912279Y-125700823D03*
X156912279Y-123160823D03*
X154372279Y-125700823D03*
X154372279Y-123160823D03*
X151832279Y-125700823D03*
X151832279Y-123160823D03*
X149292279Y-125700823D03*
X149292279Y-123160823D03*
X146752279Y-125700823D03*
X146752279Y-123160823D03*
X144212279Y-125700823D03*
X144212279Y-123160823D03*
X141672279Y-125700823D03*
X141672279Y-123160823D03*
X139132279Y-125700823D03*
X139132279Y-123160823D03*
X136592279Y-125700823D03*
X136592279Y-123160823D03*
X134052279Y-125700823D03*
X134052279Y-123160823D03*
X131512279Y-125700823D03*
X131512279Y-123160823D03*
X128972279Y-125700823D03*
X128972279Y-123160823D03*
X126432279Y-125700823D03*
X126432279Y-123160823D03*
X123892279Y-125700823D03*
X123892279Y-123160823D03*
X121352279Y-125700823D03*
X121352279Y-123160823D03*
X118812279Y-125700823D03*
X118812279Y-123160823D03*
X116272279Y-125700823D03*
X116272279Y-123160823D03*
X113732279Y-125700823D03*
X113732279Y-123160823D03*
D17*
X146812000Y-115506500D03*
X144272000Y-115506500D03*
X146812000Y-112966500D03*
X144272000Y-112966500D03*
X146812000Y-110426500D03*
X144272000Y-110426500D03*
X146812000Y-107886500D03*
X144272000Y-107886500D03*
X146812000Y-105346500D03*
D18*
X144272000Y-105346500D03*
D17*
X137160000Y-114427000D03*
X137160000Y-111887000D03*
X137160000Y-109347000D03*
D18*
X137160000Y-106807000D03*
D11*
X149098000Y-136779000D03*
X151638000Y-136779000D03*
D12*
X154178000Y-136779000D03*
D19*
X133731000Y-128778000D03*
X137033000Y-128778000D03*
X130429000Y-128778000D03*
X127127000Y-128778000D03*
X123825000Y-128778000D03*
X120523000Y-128651000D03*
X117221000Y-128651000D03*
X113919000Y-128651000D03*
X115316000Y-105791000D03*
X118237000Y-105791000D03*
X121158000Y-105791000D03*
X124206000Y-105791000D03*
X127254000Y-105791000D03*
X130302000Y-105791000D03*
X130302000Y-114427000D03*
X127254000Y-114300000D03*
X124206000Y-114300000D03*
X121158000Y-114300000D03*
X118237000Y-114300000D03*
X115316000Y-114300000D03*
D20*
X147661999Y-107036501D02*
X146812000Y-107886500D01*
X147987001Y-106711499D02*
X147661999Y-107036501D01*
X147987001Y-102634336D02*
X147987001Y-106711499D01*
X146741698Y-101389033D02*
X147987001Y-102634336D01*
X146741698Y-100311403D02*
X146741698Y-101389033D01*
X147661999Y-109576501D02*
X146812000Y-110426500D01*
X148437011Y-108801489D02*
X147661999Y-109576501D01*
X148437011Y-101156090D02*
X148437011Y-108801489D01*
X149281698Y-100311403D02*
X148437011Y-101156090D01*
X150368699Y-99224402D02*
X150368699Y-101535801D01*
X151821698Y-97771403D02*
X150368699Y-99224402D01*
X148887021Y-110891479D02*
X147661999Y-112116501D01*
X147661999Y-112116501D02*
X146812000Y-112966500D01*
X148887021Y-103017479D02*
X148887021Y-110891479D01*
X150368699Y-101535801D02*
X148887021Y-103017479D01*
X150538300Y-119232800D02*
X146812000Y-115506500D01*
X150538300Y-121866844D02*
X150538300Y-119232800D01*
X151832279Y-123160823D02*
X150538300Y-121866844D01*
X146752279Y-117986779D02*
X144272000Y-115506500D01*
X146752279Y-123160823D02*
X146752279Y-117986779D01*
X142748000Y-116649500D02*
X142748000Y-114490500D01*
X144212279Y-118113779D02*
X142748000Y-116649500D01*
X144212279Y-123160823D02*
X144212279Y-118113779D01*
X144272000Y-112966500D02*
X142748000Y-114490500D01*
X142759280Y-124613822D02*
X141672279Y-125700823D01*
X142811500Y-117475000D02*
X142811500Y-124561602D01*
X142297990Y-116961490D02*
X142811500Y-117475000D01*
X142297990Y-112400510D02*
X142297990Y-116961490D01*
X142811500Y-124561602D02*
X142759280Y-124613822D01*
X144272000Y-110426500D02*
X142297990Y-112400510D01*
X141732000Y-110426500D02*
X141732000Y-121158000D01*
X144272000Y-107886500D02*
X141732000Y-110426500D01*
X139894278Y-124938824D02*
X139132279Y-125700823D01*
X140219280Y-124613822D02*
X139894278Y-124938824D01*
X140219280Y-122670720D02*
X140219280Y-124613822D01*
X141732000Y-121158000D02*
X140219280Y-122670720D01*
X137033000Y-131505000D02*
X135382000Y-129854000D01*
X137033000Y-131605000D02*
X137033000Y-131505000D01*
X135382000Y-126911102D02*
X136592279Y-125700823D01*
X134747000Y-133858000D02*
X137000000Y-131605000D01*
X137000000Y-131605000D02*
X137033000Y-131605000D01*
X134747000Y-136906000D02*
X134747000Y-133858000D01*
X135382000Y-126911102D02*
X135382000Y-129854000D01*
X133731000Y-131605000D02*
X133731000Y-131699000D01*
X133731000Y-131699000D02*
X132207000Y-133223000D01*
X133731000Y-131505000D02*
X132080000Y-129854000D01*
X133731000Y-131605000D02*
X133731000Y-131505000D01*
X132080000Y-127673102D02*
X134052279Y-125700823D01*
X132207000Y-133223000D02*
X132207000Y-136906000D01*
X132080000Y-127673102D02*
X132080000Y-129854000D01*
X130429000Y-131705000D02*
X129667000Y-132467000D01*
X130429000Y-131605000D02*
X130429000Y-131705000D01*
X129529000Y-131605000D02*
X128778000Y-130854000D01*
X130429000Y-131605000D02*
X129529000Y-131605000D01*
X128778000Y-128016000D02*
X127762000Y-127000000D01*
X125191456Y-127000000D02*
X123892279Y-125700823D01*
X127762000Y-127000000D02*
X125191456Y-127000000D01*
X129667000Y-132467000D02*
X129667000Y-136906000D01*
X128778000Y-128016000D02*
X128778000Y-130854000D01*
X122651456Y-127000000D02*
X121352279Y-125700823D01*
X124206000Y-127000000D02*
X122651456Y-127000000D01*
X125476000Y-128270000D02*
X124206000Y-127000000D01*
X127127000Y-131505000D02*
X125476000Y-129854000D01*
X127127000Y-131605000D02*
X127127000Y-131505000D01*
X127127000Y-135356000D02*
X127127000Y-131605000D01*
X127127000Y-136906000D02*
X127127000Y-135356000D01*
X125476000Y-128270000D02*
X125476000Y-129854000D01*
X123825000Y-131605000D02*
X123825000Y-131699000D01*
X123825000Y-131699000D02*
X124587000Y-132461000D01*
X120111456Y-127000000D02*
X118812279Y-125700823D01*
X121412000Y-127000000D02*
X120111456Y-127000000D01*
X123731000Y-131605000D02*
X122174000Y-130048000D01*
X122174000Y-127762000D02*
X121412000Y-127000000D01*
X123825000Y-131605000D02*
X123731000Y-131605000D01*
X124587000Y-132461000D02*
X124587000Y-136906000D01*
X122174000Y-127762000D02*
X122174000Y-130048000D01*
X120523000Y-131625000D02*
X122047000Y-133149000D01*
X120523000Y-131525000D02*
X120523000Y-131625000D01*
X120523000Y-131525000D02*
X120349000Y-131525000D01*
X120349000Y-131525000D02*
X118872000Y-130048000D01*
X118872000Y-127508000D02*
X118364000Y-127000000D01*
X117571456Y-127000000D02*
X116272279Y-125700823D01*
X118364000Y-127000000D02*
X117571456Y-127000000D01*
X122047000Y-133149000D02*
X122047000Y-136906000D01*
X118872000Y-127508000D02*
X118872000Y-130048000D01*
X117221000Y-131578000D02*
X119507000Y-133864000D01*
X117221000Y-131478000D02*
X117221000Y-131578000D01*
X117221000Y-131378000D02*
X115570000Y-129727000D01*
X117221000Y-131478000D02*
X117221000Y-131378000D01*
X115570000Y-127538544D02*
X113732279Y-125700823D01*
X119507000Y-133864000D02*
X119507000Y-136906000D01*
X115570000Y-127538544D02*
X115570000Y-129727000D01*
X113919000Y-131478000D02*
X113919000Y-131572000D01*
X116967000Y-134620000D02*
X116967000Y-136906000D01*
X113919000Y-131572000D02*
X116967000Y-134620000D01*
X113919000Y-131445000D02*
X113919000Y-131478000D01*
X112268000Y-124625102D02*
X112268000Y-129794000D01*
X112268000Y-129794000D02*
X113919000Y-131445000D01*
X113732279Y-123160823D02*
X112268000Y-124625102D01*
X130302000Y-108585000D02*
X130302000Y-109585000D01*
X130302000Y-109585000D02*
X130302000Y-111633000D01*
X126403101Y-120650000D02*
X128778000Y-118275101D01*
X130302000Y-111733000D02*
X130302000Y-111633000D01*
X128778000Y-113257000D02*
X130302000Y-111733000D01*
X128778000Y-118275101D02*
X128778000Y-113257000D01*
X130302000Y-108485000D02*
X131953000Y-106834000D01*
X130302000Y-108585000D02*
X130302000Y-108485000D01*
X131953000Y-106834000D02*
X131953000Y-104648000D01*
X135202596Y-101398404D02*
X136059937Y-101398404D01*
X131953000Y-104648000D02*
X135202596Y-101398404D01*
X137103459Y-101398404D02*
X137668699Y-100833164D01*
X136059937Y-101398404D02*
X137103459Y-101398404D01*
X142240000Y-91486000D02*
X142240000Y-91186000D01*
X137668699Y-96393000D02*
X137668699Y-96057301D01*
X137668699Y-100833164D02*
X137668699Y-96393000D01*
X137668699Y-96120801D02*
X137668699Y-96393000D01*
X142303500Y-91486000D02*
X137668699Y-96120801D01*
X142303500Y-91186000D02*
X142303500Y-91486000D01*
X127254000Y-108538000D02*
X127254000Y-109538000D01*
X127254000Y-109538000D02*
X127254000Y-111633000D01*
X123863101Y-119320923D02*
X125730000Y-117454024D01*
X123863101Y-120650000D02*
X123863101Y-119320923D01*
X125730000Y-113257000D02*
X127254000Y-111733000D01*
X127254000Y-111733000D02*
X127254000Y-111633000D01*
X125730000Y-117454024D02*
X125730000Y-113257000D01*
X127254000Y-108438000D02*
X128905000Y-106787000D01*
X127254000Y-108538000D02*
X127254000Y-108438000D01*
X128905000Y-104516863D02*
X132715000Y-100706863D01*
X128905000Y-106787000D02*
X128905000Y-104516863D01*
X137160000Y-91486000D02*
X137160000Y-91186000D01*
X132715000Y-95994500D02*
X132715000Y-96139000D01*
X137223500Y-91486000D02*
X132715000Y-95994500D01*
X137223500Y-91186000D02*
X137223500Y-91486000D01*
X132715000Y-96139000D02*
X132715000Y-95931000D01*
X132715000Y-100706863D02*
X132715000Y-96139000D01*
X124206000Y-108538000D02*
X124206000Y-109538000D01*
X124206000Y-109538000D02*
X124206000Y-111633000D01*
X121323101Y-119320923D02*
X122682000Y-117962024D01*
X121323101Y-120650000D02*
X121323101Y-119320923D01*
X124206000Y-111733000D02*
X124206000Y-111633000D01*
X122682000Y-113257000D02*
X124206000Y-111733000D01*
X122682000Y-117962024D02*
X122682000Y-113257000D01*
X124206000Y-108438000D02*
X125730000Y-106914000D01*
X124206000Y-108538000D02*
X124206000Y-108438000D01*
X132080000Y-91486000D02*
X132080000Y-91186000D01*
X125730000Y-102611863D02*
X127874697Y-100467166D01*
X125730000Y-106914000D02*
X125730000Y-102611863D01*
X127874697Y-95754803D02*
X127874697Y-96266000D01*
X132143500Y-91486000D02*
X127874697Y-95754803D01*
X132143500Y-91186000D02*
X132143500Y-91486000D01*
X127874697Y-96266000D02*
X127874697Y-95691303D01*
X127874697Y-100467166D02*
X127874697Y-96266000D01*
X121158000Y-108538000D02*
X121158000Y-109538000D01*
X121158000Y-109538000D02*
X121158000Y-111633000D01*
X118783101Y-119320923D02*
X119634000Y-118470024D01*
X118783101Y-120650000D02*
X118783101Y-119320923D01*
X119634000Y-113257000D02*
X121158000Y-111733000D01*
X121158000Y-111733000D02*
X121158000Y-111633000D01*
X119634000Y-118470024D02*
X119634000Y-113257000D01*
X127000000Y-91486000D02*
X127000000Y-91186000D01*
X122794697Y-106801303D02*
X122794697Y-95691303D01*
X121158000Y-108438000D02*
X122794697Y-106801303D01*
X121158000Y-108538000D02*
X121158000Y-108438000D01*
X122858197Y-95691303D02*
X122794697Y-95691303D01*
X127063500Y-91486000D02*
X122858197Y-95691303D01*
X127063500Y-91186000D02*
X127063500Y-91486000D01*
X118237000Y-108538000D02*
X118237000Y-109538000D01*
X118237000Y-109538000D02*
X118237000Y-111633000D01*
X116243101Y-119320923D02*
X116840000Y-118724024D01*
X116243101Y-120650000D02*
X116243101Y-119320923D01*
X118237000Y-111733000D02*
X118237000Y-111633000D01*
X116840000Y-113130000D02*
X118237000Y-111733000D01*
X116840000Y-118724024D02*
X116840000Y-113130000D01*
X118237000Y-108438000D02*
X119634000Y-107041000D01*
X118237000Y-108538000D02*
X118237000Y-108438000D01*
X119634000Y-101087863D02*
X120254697Y-100467166D01*
X121920000Y-91486000D02*
X121920000Y-91186000D01*
X119634000Y-107041000D02*
X119634000Y-101087863D01*
X121983500Y-91486000D02*
X120254697Y-93214803D01*
X120254697Y-93214803D02*
X120254697Y-93345000D01*
X121983500Y-91186000D02*
X121983500Y-91486000D01*
X120254697Y-93345000D02*
X120254697Y-93151303D01*
X120254697Y-100467166D02*
X120254697Y-93345000D01*
X115316000Y-108538000D02*
X115316000Y-109538000D01*
X115316000Y-109538000D02*
X115316000Y-111633000D01*
X115316000Y-111733000D02*
X115316000Y-111633000D01*
X113703101Y-113345899D02*
X115316000Y-111733000D01*
X113703101Y-120650000D02*
X113703101Y-113345899D01*
X115316000Y-108438000D02*
X116459000Y-107295000D01*
X115316000Y-108538000D02*
X115316000Y-108438000D01*
X116459000Y-101722863D02*
X117475000Y-100706863D01*
X116459000Y-107295000D02*
X116459000Y-101722863D01*
X116903500Y-92736000D02*
X117475000Y-93307500D01*
X116903500Y-91186000D02*
X116903500Y-92736000D01*
X117475000Y-93307500D02*
X117475000Y-93662500D01*
X117475000Y-93662500D02*
X117475000Y-93371000D01*
X117475000Y-100706863D02*
X117475000Y-93662500D01*
X137160000Y-114973101D02*
X137160000Y-114427000D01*
X131483101Y-120650000D02*
X137160000Y-114973101D01*
X128943101Y-120650000D02*
X130848101Y-118745000D01*
X130848101Y-118745000D02*
X132080000Y-118745000D01*
X132080000Y-118745000D02*
X135255000Y-115570000D01*
X135255000Y-113792000D02*
X137160000Y-111887000D01*
X135255000Y-115570000D02*
X135255000Y-113792000D01*
X156337000Y-121666000D02*
X156337000Y-119172100D01*
X158687024Y-116822076D02*
X159441024Y-116822076D01*
X156337000Y-119172100D02*
X158687024Y-116822076D01*
X155575000Y-127127000D02*
X155575000Y-122428000D01*
X151638000Y-131064000D02*
X155575000Y-127127000D01*
X155575000Y-122428000D02*
X156337000Y-121666000D01*
X151638000Y-136779000D02*
X151638000Y-131064000D01*
X154178000Y-136779000D02*
X154178000Y-131318000D01*
X154178000Y-131318000D02*
X154305000Y-131318000D01*
X159441024Y-119362076D02*
X159441024Y-120366076D01*
X158369000Y-121438100D02*
X158369000Y-127254000D01*
X159441024Y-120366076D02*
X158369000Y-121438100D01*
X154305000Y-131318000D02*
X158369000Y-127254000D01*
M02*
