G04 #@! TF.GenerationSoftware,KiCad,Pcbnew,(5.1.5-0)*
G04 #@! TF.CreationDate,2020-11-12T13:18:58+00:00*
G04 #@! TF.ProjectId,Strummi,53747275-6d6d-4692-9e6b-696361645f70,rev?*
G04 #@! TF.SameCoordinates,Original*
G04 #@! TF.FileFunction,Soldermask,Bot*
G04 #@! TF.FilePolarity,Negative*
%FSLAX46Y46*%
G04 Gerber Fmt 4.6, Leading zero omitted, Abs format (unit mm)*
G04 Created by KiCad (PCBNEW (5.1.5-0)) date 2020-11-12 13:18:58*
%MOMM*%
%LPD*%
G04 APERTURE LIST*
%ADD10C,6.800000*%
%ADD11O,2.400000X3.000000*%
%ADD12R,2.400000X3.000000*%
%ADD13O,3.219200X1.711200*%
%ADD14C,2.082800*%
%ADD15C,1.727200*%
%ADD16O,2.100000X2.100000*%
%ADD17R,2.100000X2.100000*%
G04 APERTURE END LIST*
D10*
X106680000Y-91440000D03*
X167640000Y-91440000D03*
X167640000Y-137160000D03*
X106680000Y-137160000D03*
D11*
X114427000Y-136906000D03*
X116967000Y-136906000D03*
X119507000Y-136906000D03*
X122047000Y-136906000D03*
X124587000Y-136906000D03*
X127127000Y-136906000D03*
X129667000Y-136906000D03*
X132207000Y-136906000D03*
D12*
X134747000Y-136906000D03*
D11*
X142303500Y-91186000D03*
X139763500Y-91186000D03*
X137223500Y-91186000D03*
X134683500Y-91186000D03*
X132143500Y-91186000D03*
X129603500Y-91186000D03*
X127063500Y-91186000D03*
X124523500Y-91186000D03*
X121983500Y-91186000D03*
X119443500Y-91186000D03*
X116903500Y-91186000D03*
D12*
X114363500Y-91186000D03*
D13*
X159441024Y-114282076D03*
X159441024Y-116822076D03*
X159441024Y-119362076D03*
X159441024Y-104122076D03*
X159441024Y-106662076D03*
X159441024Y-109202076D03*
D14*
X154343101Y-120650000D03*
X151803101Y-120650000D03*
X149263101Y-120650000D03*
D15*
X131501698Y-100311403D03*
X131501698Y-97771403D03*
X123881698Y-100311403D03*
X123881698Y-97771403D03*
X118801698Y-97771403D03*
X116261698Y-100311403D03*
X121341698Y-100311403D03*
X121341698Y-97771403D03*
X118801698Y-100311403D03*
X116261698Y-97771403D03*
X113721698Y-100311403D03*
X113721698Y-97771403D03*
X136581698Y-97771403D03*
X134041698Y-100311403D03*
X134041698Y-97771403D03*
X139121698Y-100311403D03*
X139121698Y-97771403D03*
X136581698Y-100311403D03*
X156901698Y-100311403D03*
X156901698Y-97771403D03*
X154361698Y-100311403D03*
X144201698Y-100311403D03*
X144201698Y-97771403D03*
X141661698Y-100311403D03*
X141661698Y-97771403D03*
X149281698Y-97771403D03*
X146741698Y-100311403D03*
X146741698Y-97771403D03*
X128961698Y-100311403D03*
X128961698Y-97771403D03*
X126421698Y-100311403D03*
X126421698Y-97771403D03*
X154361698Y-97771403D03*
X151821698Y-100311403D03*
X151821698Y-97771403D03*
X149281698Y-100311403D03*
D14*
X136563101Y-120650000D03*
X134023101Y-120650000D03*
X131483101Y-120650000D03*
X128943101Y-120650000D03*
X126403101Y-120650000D03*
X123863101Y-120650000D03*
X121323101Y-120650000D03*
X118783101Y-120650000D03*
X116243101Y-120650000D03*
X113703101Y-120650000D03*
D15*
X156912279Y-125700823D03*
X156912279Y-123160823D03*
X154372279Y-125700823D03*
X154372279Y-123160823D03*
X151832279Y-125700823D03*
X151832279Y-123160823D03*
X149292279Y-125700823D03*
X149292279Y-123160823D03*
X146752279Y-125700823D03*
X146752279Y-123160823D03*
X144212279Y-125700823D03*
X144212279Y-123160823D03*
X141672279Y-125700823D03*
X141672279Y-123160823D03*
X139132279Y-125700823D03*
X139132279Y-123160823D03*
X136592279Y-125700823D03*
X136592279Y-123160823D03*
X134052279Y-125700823D03*
X134052279Y-123160823D03*
X131512279Y-125700823D03*
X131512279Y-123160823D03*
X128972279Y-125700823D03*
X128972279Y-123160823D03*
X126432279Y-125700823D03*
X126432279Y-123160823D03*
X123892279Y-125700823D03*
X123892279Y-123160823D03*
X121352279Y-125700823D03*
X121352279Y-123160823D03*
X118812279Y-125700823D03*
X118812279Y-123160823D03*
X116272279Y-125700823D03*
X116272279Y-123160823D03*
X113732279Y-125700823D03*
X113732279Y-123160823D03*
D16*
X146812000Y-115506500D03*
X144272000Y-115506500D03*
X146812000Y-112966500D03*
X144272000Y-112966500D03*
X146812000Y-110426500D03*
X144272000Y-110426500D03*
X146812000Y-107886500D03*
X144272000Y-107886500D03*
X146812000Y-105346500D03*
D17*
X144272000Y-105346500D03*
D16*
X137160000Y-114427000D03*
X137160000Y-111887000D03*
X137160000Y-109347000D03*
D17*
X137160000Y-106807000D03*
D11*
X149098000Y-136779000D03*
X151638000Y-136779000D03*
D12*
X154178000Y-136779000D03*
M02*
